<?xml version="1.0" encoding="UTF-8"?>
<svg width="24px" height="24px" viewBox="0 0 24 24" version="1.1" xmlns="http://www.w3.org/2000/svg" xmlns:xlink="http://www.w3.org/1999/xlink">
    <title>Public/ic_public_add_norm_filled</title>
    <defs>
        <path d="M12,1 C18.0751322,1 23,5.92486775 23,12 C23,18.0751322 18.0751322,23 12,23 C5.92486775,23 1,18.0751322 1,12 C1,5.92486775 5.92486775,1 12,1 Z M12.75,6.75 C12.75,6.33578644 12.4142136,6 12,6 C11.5857864,6 11.25,6.33578644 11.25,6.75 L11.25,6.75 L11.25,11.249 L6.75,11.25 C6.37030423,11.25 6.05650904,11.5321539 6.00684662,11.8982294 L6,12 C6,12.4142136 6.33578644,12.75 6.75,12.75 L6.75,12.75 L11.25,12.749 L11.25,17.25 C11.25,17.6296958 11.5321539,17.943491 11.8982294,17.9931534 L12,18 C12.4142136,18 12.75,17.6642136 12.75,17.25 L12.75,17.25 Z M17.25,11.25 L13.75,11.25 L13.75,12.75 L17.25,12.75 C17.6642136,12.75 18,12.4142136 18,12 C18,11.5857864 17.6642136,11.25 17.25,11.25 L17.25,11.25 Z" id="path-1"></path>
    </defs>
    <g id="Public/ic_public_add_norm_filled" stroke="none" stroke-width="1" fill="none" fill-rule="evenodd">
        <mask id="mask-2" fill="white">
            <use xlink:href="#path-1"></use>
        </mask>
        <use id="形状结合" fill="#000000" xlink:href="#path-1"></use>
    </g>
</svg>